{"buffers":[{"uri":"prop.bin","byteLength":2332608}],"asset":{"version":"2.0","generator":"gltfpack 0.17"},"extensionsUsed":["KHR_mesh_quantization","KHR_texture_transform"],"extensionsRequired":["KHR_mesh_quantization"],"bufferViews":[{"buffer":0,"byteOffset":0,"byteLength":73547},{"buffer":0,"byteOffset":73548,"byteLength":87870},{"buffer":0,"byteOffset":161420,"byteLength":723344,"byteStride":8,"target":34962},{"buffer":0,"byteOffset":884764,"byteLength":361672,"byteStride":4,"target":34962},{"buffer":0,"byteOffset":1246436,"byteLength":361672,"byteStride":4,"target":34962},{"buffer":0,"byteOffset":1608108,"byteLength":704532,"target":34963},{"buffer":0,"byteOffset":2312640,"byteLength":19968,"target":34963}],"accessors":[{"bufferView":2,"byteOffset":0,"componentType":5123,"count":87298,"type":"VEC3","min":[0,0,0],"max":[16383,1904,11676]},{"bufferView":3,"byteOffset":0,"componentType":5120,"count":87298,"type":"VEC3","normalized":true},{"bufferView":4,"byteOffset":0,"componentType":5123,"count":87298,"type":"VEC2"},{"bufferView":5,"byteOffset":0,"componentType":5125,"count":176133,"type":"SCALAR"},{"bufferView":2,"byteOffset":698384,"componentType":5123,"count":3120,"type":"VEC3","min":[13242,211,5660],"max":[13410,487,5996]},{"bufferView":3,"byteOffset":349192,"componentType":5120,"count":3120,"type":"VEC3","normalized":true},{"bufferView":4,"byteOffset":349192,"componentType":5123,"count":3120,"type":"VEC2"},{"bufferView":6,"byteOffset":0,"componentType":5123,"count":9984,"type":"SCALAR"}],"samplers":[{"magFilter":9729,"minFilter":9987}],"images":[{"bufferView":0,"mimeType":"image/png"},{"bufferView":1,"mimeType":"image/png"}],"textures":[{"sampler":0,"source":0},{"sampler":0,"source":1}],"materials":[{"name":"Main_M","pbrMetallicRoughness":{"baseColorTexture":{"index":0,"extensions":{"KHR_texture_transform":{"offset":[0.0118421465,-0.987400174],"scale":[0.000236695472,0.000238858265]}}},"metallicFactor":0,"roughnessFactor":0.434314579},"doubleSided":true},{"name":"Npc_M","pbrMetallicRoughness":{"baseColorTexture":{"index":1,"extensions":{"KHR_texture_transform":{"offset":[0.0096978927,-0.94942373],"scale":[0.000240518581,0.000152488836]}}},"metallicFactor":0,"roughnessFactor":0.434314579},"alphaMode":"BLEND","doubleSided":true}],"meshes":[{"primitives":[{"attributes":{"POSITION":0,"NORMAL":1,"TEXCOORD_0":2},"indices":3,"material":0},{"attributes":{"POSITION":4,"NORMAL":5,"TEXCOORD_0":6},"indices":7,"material":1}]}],"nodes":[{"mesh":0,"translation":[-79.2748566,-0.93855691,-34.8140717],"scale":[0.00596313924,0.00596313924,0.00596313924]}],"scenes":[{"name":"Scene","nodes":[0]}],"scene":0}